<mxfile host="app.diagrams.net" agent="Mozilla/5.0 (Windows NT 10.0; Win64; x64) AppleWebKit/537.36 (KHTML, like Gecko) Chrome/130.0.0.0 Safari/537.36" version="24.8.6">
  <diagram id="C5RBs43oDa-KdzZeNtuy" name="Page-1">
    <mxGraphModel grid="1" page="1" gridSize="10" guides="1" tooltips="1" connect="1" arrows="1" fold="1" pageScale="1" pageWidth="827" pageHeight="1169" math="0" shadow="0">
      <root>
        <mxCell id="WIyWlLk6GJQsqaUBKTNV-0" />
        <mxCell id="WIyWlLk6GJQsqaUBKTNV-1" parent="WIyWlLk6GJQsqaUBKTNV-0" />
        <mxCell id="-eGcEiXsCUOAZOW_SYCH-10" style="edgeStyle=orthogonalEdgeStyle;rounded=0;orthogonalLoop=1;jettySize=auto;html=1;entryX=0.5;entryY=0;entryDx=0;entryDy=0;" edge="1" parent="WIyWlLk6GJQsqaUBKTNV-1" source="-eGcEiXsCUOAZOW_SYCH-8" target="-eGcEiXsCUOAZOW_SYCH-9">
          <mxGeometry relative="1" as="geometry" />
        </mxCell>
        <mxCell id="-eGcEiXsCUOAZOW_SYCH-8" value="START" style="ellipse;whiteSpace=wrap;html=1;" vertex="1" parent="WIyWlLk6GJQsqaUBKTNV-1">
          <mxGeometry x="300" y="40" width="120" height="80" as="geometry" />
        </mxCell>
        <mxCell id="-eGcEiXsCUOAZOW_SYCH-12" style="edgeStyle=orthogonalEdgeStyle;rounded=0;orthogonalLoop=1;jettySize=auto;html=1;entryX=0.5;entryY=0;entryDx=0;entryDy=0;" edge="1" parent="WIyWlLk6GJQsqaUBKTNV-1" source="-eGcEiXsCUOAZOW_SYCH-9" target="-eGcEiXsCUOAZOW_SYCH-11">
          <mxGeometry relative="1" as="geometry" />
        </mxCell>
        <mxCell id="-eGcEiXsCUOAZOW_SYCH-9" value="Nhập 2 số&lt;div&gt;A và B&lt;/div&gt;" style="rounded=0;whiteSpace=wrap;html=1;" vertex="1" parent="WIyWlLk6GJQsqaUBKTNV-1">
          <mxGeometry x="300" y="160" width="120" height="60" as="geometry" />
        </mxCell>
        <mxCell id="-eGcEiXsCUOAZOW_SYCH-18" style="edgeStyle=orthogonalEdgeStyle;rounded=0;orthogonalLoop=1;jettySize=auto;html=1;" edge="1" parent="WIyWlLk6GJQsqaUBKTNV-1" source="-eGcEiXsCUOAZOW_SYCH-11" target="-eGcEiXsCUOAZOW_SYCH-13">
          <mxGeometry relative="1" as="geometry" />
        </mxCell>
        <mxCell id="-eGcEiXsCUOAZOW_SYCH-19" style="edgeStyle=orthogonalEdgeStyle;rounded=0;orthogonalLoop=1;jettySize=auto;html=1;" edge="1" parent="WIyWlLk6GJQsqaUBKTNV-1" source="-eGcEiXsCUOAZOW_SYCH-11" target="-eGcEiXsCUOAZOW_SYCH-14">
          <mxGeometry relative="1" as="geometry" />
        </mxCell>
        <mxCell id="-eGcEiXsCUOAZOW_SYCH-11" value="So sánh 2 số&lt;div&gt;A và B&lt;/div&gt;" style="shape=parallelogram;perimeter=parallelogramPerimeter;whiteSpace=wrap;html=1;fixedSize=1;" vertex="1" parent="WIyWlLk6GJQsqaUBKTNV-1">
          <mxGeometry x="300" y="290" width="120" height="60" as="geometry" />
        </mxCell>
        <mxCell id="-eGcEiXsCUOAZOW_SYCH-13" value="&lt;span class=&quot;base&quot;&gt;&lt;span class=&quot;mrel&quot;&gt;A &amp;lt; B&lt;/span&gt;&lt;/span&gt;" style="rhombus;whiteSpace=wrap;html=1;" vertex="1" parent="WIyWlLk6GJQsqaUBKTNV-1">
          <mxGeometry x="120" y="360" width="80" height="80" as="geometry" />
        </mxCell>
        <mxCell id="-eGcEiXsCUOAZOW_SYCH-21" style="edgeStyle=orthogonalEdgeStyle;rounded=0;orthogonalLoop=1;jettySize=auto;html=1;exitX=0.5;exitY=1;exitDx=0;exitDy=0;entryX=0.5;entryY=0;entryDx=0;entryDy=0;" edge="1" parent="WIyWlLk6GJQsqaUBKTNV-1" source="-eGcEiXsCUOAZOW_SYCH-14" target="-eGcEiXsCUOAZOW_SYCH-16">
          <mxGeometry relative="1" as="geometry" />
        </mxCell>
        <mxCell id="-eGcEiXsCUOAZOW_SYCH-14" value="A &amp;gt; B" style="rhombus;whiteSpace=wrap;html=1;" vertex="1" parent="WIyWlLk6GJQsqaUBKTNV-1">
          <mxGeometry x="530" y="360" width="80" height="80" as="geometry" />
        </mxCell>
        <mxCell id="-eGcEiXsCUOAZOW_SYCH-22" style="edgeStyle=orthogonalEdgeStyle;rounded=0;orthogonalLoop=1;jettySize=auto;html=1;" edge="1" parent="WIyWlLk6GJQsqaUBKTNV-1" source="-eGcEiXsCUOAZOW_SYCH-15" target="-eGcEiXsCUOAZOW_SYCH-17">
          <mxGeometry relative="1" as="geometry" />
        </mxCell>
        <mxCell id="-eGcEiXsCUOAZOW_SYCH-15" value="In A" style="shape=parallelogram;perimeter=parallelogramPerimeter;whiteSpace=wrap;html=1;fixedSize=1;" vertex="1" parent="WIyWlLk6GJQsqaUBKTNV-1">
          <mxGeometry x="90" y="520" width="120" height="60" as="geometry" />
        </mxCell>
        <mxCell id="-eGcEiXsCUOAZOW_SYCH-23" style="edgeStyle=orthogonalEdgeStyle;rounded=0;orthogonalLoop=1;jettySize=auto;html=1;entryX=0.5;entryY=0;entryDx=0;entryDy=0;" edge="1" parent="WIyWlLk6GJQsqaUBKTNV-1" source="-eGcEiXsCUOAZOW_SYCH-16" target="-eGcEiXsCUOAZOW_SYCH-17">
          <mxGeometry relative="1" as="geometry" />
        </mxCell>
        <mxCell id="-eGcEiXsCUOAZOW_SYCH-16" value="In B" style="shape=parallelogram;perimeter=parallelogramPerimeter;whiteSpace=wrap;html=1;fixedSize=1;" vertex="1" parent="WIyWlLk6GJQsqaUBKTNV-1">
          <mxGeometry x="510" y="520" width="120" height="60" as="geometry" />
        </mxCell>
        <mxCell id="-eGcEiXsCUOAZOW_SYCH-17" value="END" style="ellipse;whiteSpace=wrap;html=1;" vertex="1" parent="WIyWlLk6GJQsqaUBKTNV-1">
          <mxGeometry x="300" y="640" width="120" height="80" as="geometry" />
        </mxCell>
        <mxCell id="-eGcEiXsCUOAZOW_SYCH-20" style="edgeStyle=orthogonalEdgeStyle;rounded=0;orthogonalLoop=1;jettySize=auto;html=1;exitX=0.5;exitY=1;exitDx=0;exitDy=0;entryX=0.58;entryY=0.03;entryDx=0;entryDy=0;entryPerimeter=0;" edge="1" parent="WIyWlLk6GJQsqaUBKTNV-1" source="-eGcEiXsCUOAZOW_SYCH-13" target="-eGcEiXsCUOAZOW_SYCH-15">
          <mxGeometry relative="1" as="geometry" />
        </mxCell>
      </root>
    </mxGraphModel>
  </diagram>
</mxfile>
